<svg width="21" height="20" viewBox="0 0 21 20" fill="none" xmlns="http://www.w3.org/2000/svg">
<g clip-path="url(#clip0_55_2324)">
<path d="M9.99508 19.9902C15.463 19.9902 19.9902 15.4532 19.9902 9.99508C19.9902 4.52719 15.4532 0 9.98532 0C4.52719 0 0 4.52719 0 9.99508C0 15.4532 4.53699 19.9902 9.99508 19.9902ZM9.99508 18.3243C5.36991 18.3243 1.67565 14.6203 1.67565 9.99508C1.67565 5.36991 5.36011 1.66584 9.98532 1.66584C14.6105 1.66584 18.3243 5.36991 18.3243 9.99508C18.3243 14.6203 14.6203 18.3243 9.99508 18.3243Z" fill="black"/>
<g clip-path="url(#clip1_55_2324)">
<path d="M9.99508 19.9902C15.463 19.9902 19.9902 15.4532 19.9902 9.99508C19.9902 4.52719 15.4532 0 9.98532 0C4.52719 0 0 4.52719 0 9.99508C0 15.4532 4.53699 19.9902 9.99508 19.9902ZM9.99508 18.3243C5.36991 18.3243 1.67565 14.6203 1.67565 9.99508C1.67565 5.36991 5.36011 1.66584 9.98532 1.66584C14.6105 1.66584 18.3243 5.36991 18.3243 9.99508C18.3243 14.6203 14.6203 18.3243 9.99508 18.3243Z" fill="#35CC00"/>
<path d="M9.98523 15.2573C12.8465 15.2573 15.2375 12.8663 15.2375 10.005C15.2375 7.1535 12.8368 4.75269 9.98523 4.75269C7.12385 4.75269 4.74268 7.14366 4.74268 10.005C4.74268 12.8566 7.13369 15.2573 9.98523 15.2573ZM9.98523 13.7287C7.9666 13.7287 6.27134 12.0334 6.27134 10.005C6.27134 7.96681 7.947 6.28135 9.98523 6.28135C12.0136 6.28135 13.6991 7.97657 13.6991 10.005C13.6991 12.0432 12.0234 13.7287 9.98523 13.7287Z" fill="#35CC00"/>
</g>
</g>
<defs>
<clipPath id="clip0_55_2324">
<rect width="20.2351" height="20" fill="white"/>
</clipPath>
<clipPath id="clip1_55_2324">
<rect width="20.2351" height="20" fill="white"/>
</clipPath>
</defs>
</svg>
