<svg width="28" height="28" viewBox="0 0 28 28" fill="none" xmlns="http://www.w3.org/2000/svg">
<g clip-path="url(#clip0_55_2319)">
<path d="M13.8305 27.9862C21.3966 27.9862 27.661 21.6345 27.661 13.9931C27.661 6.33806 21.3831 0 13.817 0C6.26441 0 0 6.33806 0 13.9931C0 21.6345 6.27797 27.9862 13.8305 27.9862ZM13.8305 25.6541C7.43051 25.6541 2.31864 20.4684 2.31864 13.9931C2.31864 7.51787 7.41696 2.33218 13.817 2.33218C20.2169 2.33218 25.356 7.51787 25.356 13.9931C25.356 20.4684 20.2306 25.6541 13.8305 25.6541Z" fill="#35CC00"/>
<path d="M7.53906 13.9932C7.53906 14.6655 8.00008 15.1182 8.69161 15.1182H12.6781V19.1652C12.6781 19.8511 13.139 20.3313 13.8035 20.3313C14.4814 20.3313 14.956 19.8648 14.956 19.1652V15.1182H18.956C19.634 15.1182 20.1085 14.6655 20.1085 13.9932C20.1085 13.3073 19.634 12.8272 18.956 12.8272H14.956V8.79383C14.956 8.09417 14.4814 7.61401 13.8035 7.61401C13.139 7.61401 12.6781 8.09417 12.6781 8.79383V12.8272H8.69161C8.00008 12.8272 7.53906 13.3073 7.53906 13.9932Z" fill="#35CC00"/>
</g>
<defs>
<clipPath id="clip0_55_2319">
<rect width="28" height="28" fill="white"/>
</clipPath>
</defs>
</svg>
